<?xml version="1.0" encoding="UTF-8" standalone="no"?>
<!-- Created with Inkscape (http://www.inkscape.org/) -->

<svg
   width="315"
   height="315"
   viewBox="0 0 83.34375 83.34375"
   version="1.1"
   id="svg1"
   xmlns="http://www.w3.org/2000/svg"
   xmlns:svg="http://www.w3.org/2000/svg">
  <defs
     id="defs1" />
  <g
     id="layer1">
    <path
       style="fill:#800080;stroke-width:0.264583"
       id="path1"
       d="M 22.418322,38.136914 40.31169,39.754104 39.136321,21.826292 43.127637,39.343636 59.814789,32.685794 44.38819,41.894918 55.876787,55.707957 42.351309,43.882165 32.7645,59.076934 39.831893,42.559069 Z" />
    <path
       style="fill:#800080;stroke-width:0.264583"
       id="path2"
       d="M 25.768188,79.881374 42.790669,56.84214 15.819544,47.191773 42.991393,56.261599 43.834902,27.628408 43.605548,56.273102 71.09799,48.227184 43.784392,56.860753 59.932146,80.521293 43.280768,57.212437 Z" />
    <path
       style="fill:#ffd5d5;stroke-width:0.264583"
       id="path3"
       d="m 38.652278,4.1229097 4.920048,8.8359673 7.040424,-7.2604145 -6.883125,7.4097075 9.080675,4.45225 -9.174054,-4.256516 -1.428258,10.012057 1.213248,-10.04038 -9.963387,1.735541 9.923883,-1.948779 z" />
    <path
       style="fill:#ffd5d5;stroke-width:0.264583"
       id="path4"
       d="M 62.359008,51.021007 55.071869,34.591517 41.443953,46.30947 54.817476,34.301998 39.461783,24.962126 55.014214,33.970589 59.151789,16.480278 55.390197,34.055287 73.303053,32.585552 55.42583,34.439042 Z" />
    <path
       style="fill:#ffd5d5;stroke-width:0.264583"
       id="path5"
       d="M 28.860368,49.990281 20.309002,34.082274 7.5451833,46.860204 20.03208,33.811526 3.9353093,25.621011 20.204002,33.464492 23.01947,15.624545 20.587178,33.520761 38.424003,30.685583 20.652072,33.902571 Z" />
    <path
       style="fill:#ffd5d5;stroke-width:0.264583"
       id="path6"
       d="M 33.498642,53.082462 12.609968,70.829918 35.630008,85.708985 12.296219,71.326941 5.2589696,97.818185 11.726569,71.182137 -15.642731,72.67556 11.688254,70.59562 1.8103458,45.027362 12.234224,70.377937 Z" />
    <path
       style="fill:#ffd5d5;stroke-width:0.264583"
       id="path7"
       d="M 52.824785,48.959551 67.549533,72.166307 85.520291,51.37151 67.999552,72.54686 93.329849,83.212121 67.776689,73.092451 65.460915,100.47874 67.188932,73.049092 40.427408,79.30949 67.048542,72.476703 Z" />
  </g>
</svg>
